HIERARCHY
ROOT Hips
{
	OFFSET 0.000000 0.000000 0.000000 
	CHANNELS 6 Xposition Yposition Zposition Zrotation Yrotation Xrotation
	JOINT LeftUpLeg
	{
		OFFSET 1.363060 -1.794630 0.839290 
		CHANNELS 3 Zrotation Yrotation Xrotation
		JOINT LeftLeg
		{
			OFFSET 2.448110 -6.726130 0.000000 
			CHANNELS 3 Zrotation Yrotation Xrotation
			JOINT LeftFoot
			{
				OFFSET 2.562200 -7.039590 0.000000 
				CHANNELS 3 Zrotation Yrotation Xrotation
				JOINT LeftToeBase
				{
					OFFSET 0.157640 -0.433110 2.322550 
					CHANNELS 3 Zrotation Yrotation Xrotation
					End Site
					{
						OFFSET 0.000000 0.000000 0.000000 
					}
				}
			}
		}
	}
	JOINT RightUpLeg
	{
		OFFSET -1.305520 -1.794630 0.839290 
		CHANNELS 3 Zrotation Yrotation Xrotation
		JOINT RightLeg
		{
			OFFSET -2.542530 -6.985550 0.000000 
			CHANNELS 3 Zrotation Yrotation Xrotation
			JOINT RightFoot
			{
				OFFSET -2.568260 -7.056230 0.000000 
				CHANNELS 3 Zrotation Yrotation Xrotation
				JOINT RightToeBase
				{
					OFFSET -0.164730 -0.452590 2.363150 
					CHANNELS 3 Zrotation Yrotation Xrotation
					End Site
					{
						OFFSET 0.000000 0.000000 0.000000 
					}
				}
			}
		}
	}
	JOINT Spine
	{
		OFFSET 0.028270 2.035590 -0.193380 
		CHANNELS 3 Zrotation Yrotation Xrotation
		JOINT Spine1
		{
			OFFSET 0.056720 2.048850 -0.042750 
			CHANNELS 3 Zrotation Yrotation Xrotation
			JOINT Neck1
			{
				OFFSET -0.054170 1.746240 0.172020 
				CHANNELS 3 Zrotation Yrotation Xrotation
				JOINT Head
				{
					OFFSET 0.104070 1.761360 -0.123970 
					CHANNELS 3 Zrotation Yrotation Xrotation
					End Site
					{
						OFFSET 0.000000 0.000000 0.000000 
					}
				}
			}
			JOINT LeftArm
			{
				OFFSET 3.362410 1.200890 -0.311210 
				CHANNELS 3 Zrotation Yrotation Xrotation
				JOINT LeftForeArm
				{
					OFFSET 4.983000 -0.000000 -0.000000 
					CHANNELS 3 Zrotation Yrotation Xrotation
					JOINT LeftHand
					{
						OFFSET 3.483560 -0.000000 -0.000000 
						CHANNELS 3 Zrotation Yrotation Xrotation
						JOINT LeftHandIndex1
						{
							OFFSET 0.715260 -0.000000 -0.000000 
							CHANNELS 3 Zrotation Yrotation Xrotation
							End Site
							{
								OFFSET 0.000000 0.000000 0.000000 
							}
						}
					}
				}
			}
			JOINT RightArm
			{
				OFFSET -3.136600 1.374050 -0.404650 
				CHANNELS 3 Zrotation Yrotation Xrotation
				JOINT RightForeArm
				{
					OFFSET -5.241900 -0.000000 -0.000000 
					CHANNELS 3 Zrotation Yrotation Xrotation
					JOINT RightHand
					{
						OFFSET -3.444170 -0.000000 -0.000000 
						CHANNELS 3 Zrotation Yrotation Xrotation
						JOINT RightHandIndex1
						{
							OFFSET -0.622530 -0.000000 -0.000000 
							CHANNELS 3 Zrotation Yrotation Xrotation
							End Site
							{
								OFFSET 0.000000 0.000000 0.000000 
							}
						}
					}
				}
			}
		}
	}
}
MOTION
Frames: 7
Frame Time: 0.041667
24.386054 26.468600 -0.688143 -109.439017 74.551466 40.608566 -137.737725 43.089481 120.633532 103.069625 19.238009 -60.677575 50.676824 51.438591 -128.652803 0.420800 -4.163800 -11.538000 7.624392 12.800591 -173.337490 56.017415 33.296936 41.092108 163.460719 -5.587156 47.686445 -0.050100 1.444100 -3.971800 97.477621 -75.437626 68.375988 -65.092154 71.123851 166.953076 102.115147 41.386896 56.222407 -1.636300 -1.458800 -0.259500 -152.529475 67.539407 -30.706329 60.679444 17.487443 179.351140 -42.293905 44.872886 -26.641433 -7.125000 0.000000 0.000000 -40.178226 56.570062 -94.987647 -81.906707 36.216791 -176.359829 62.515956 -76.383912 -22.980967 7.125000 0.000000 0.000000 
24.084209 26.538933 -0.744889 -22.782566 -9.947794 -67.108876 -104.017431 36.307154 129.756911 -42.333663 -5.415477 145.590353 -0.770622 -59.271107 25.030262 1.035100 -6.471000 -18.157400 -45.792829 37.951566 157.819628 -6.668736 28.945221 5.916332 -31.340256 1.499255 -106.222454 -0.017000 0.841700 -2.313400 -118.019695 -50.416407 109.437140 107.108069 -38.777353 165.467279 114.328472 28.449857 91.451871 -1.576200 -1.407400 -0.140200 -10.353538 -49.471345 -89.334451 -3.117347 -2.046871 152.100348 -49.481680 38.213986 -53.040178 -7.125000 0.000000 0.000000 21.064783 -75.222492 -66.417068 -13.864886 -0.625637 -75.216084 116.707766 43.969946 -49.515257 7.125000 0.000000 0.000000 
23.774904 26.604736 -0.810959 107.462756 -57.607215 -12.099973 -82.623355 -43.009908 -133.933532 81.324082 -78.431786 40.263436 74.661872 86.786879 -131.199826 1.655500 -8.108200 -23.043300 12.123061 53.591287 -1.518598 109.980945 52.378945 88.122152 147.172834 -23.196573 141.295809 -0.032400 1.161300 -3.192700 34.422650 88.404934 150.645690 -84.574980 71.408719 -177.537764 177.620443 -26.575739 178.799378 -1.475600 -1.498100 -0.163800 100.106969 -61.983514 -65.630872 92.109590 -25.086036 21.965226 -39.404760 18.217367 -1.278553 -7.125000 0.000000 0.000000 161.504799 -55.898196 -28.477733 145.934406 -83.915262 13.795418 40.787014 -63.596911 -41.481308 7.125000 0.000000 0.000000 
23.468264 26.682262 -0.874099 -151.882102 -38.288398 45.485111 6.842771 -20.301503 146.282467 -59.245981 27.374705 -82.006537 82.805203 75.854035 96.913295 1.348000 -7.350200 -20.757100 35.725551 -14.184566 -24.668504 42.905251 -16.432692 -167.314528 -129.943321 72.604022 -160.871046 -0.095200 1.989400 -5.476400 20.016808 19.941744 161.994588 85.787291 7.518816 14.098877 -128.775175 21.164798 -157.308119 -1.502800 -1.523000 -0.150200 -27.659762 84.135639 58.027321 -104.342802 61.979957 -23.731519 2.145513 -20.117670 -72.220720 -7.125000 0.000000 0.000000 27.579450 -77.927616 72.194023 71.924380 -38.675794 -1.348164 15.268990 -78.707305 -32.308805 7.125000 0.000000 0.000000 
23.155229 26.763518 -0.946030 -97.659926 -31.684923 -47.560826 -131.664646 31.619236 55.380249 -10.853336 -0.699601 -95.279787 -113.890585 11.257065 -15.848399 1.150100 -6.809400 -19.152000 158.078194 29.329496 -179.668608 146.473482 31.474014 115.695267 -21.963671 -35.246145 -76.583665 -0.086800 1.900600 -5.231200 131.902410 -24.244712 4.153675 -90.826447 62.276413 17.653557 -3.607396 -43.881943 -29.129240 -1.377100 -1.638600 -0.096900 -57.391379 -17.338827 122.862942 86.525671 40.677895 0.992419 -67.812221 21.945446 11.455212 -7.125000 0.000000 0.000000 -49.173994 31.332848 -21.960555 -56.086476 -17.644622 -175.420096 45.840212 -49.902336 20.541063 7.125000 0.000000 0.000000 
22.832604 26.833585 -1.032348 53.039783 -25.953826 95.459658 157.995770 0.997276 55.792674 -0.053700 -23.521476 159.096635 82.491730 -6.971575 155.156339 1.215100 -6.992300 -19.692500 152.416160 -13.374333 -126.900951 61.655647 61.846020 -26.320823 126.680983 26.046001 119.409471 -0.036500 1.233000 -3.390100 -6.032503 -83.112731 -132.948997 -26.239586 65.776476 -36.680228 6.975074 -62.083837 -15.254438 -1.783800 -1.541100 -0.104200 47.499209 42.684272 15.894586 49.798267 23.781831 40.162635 -74.014659 -28.952841 64.244955 -7.125000 0.000000 0.000000 -102.420400 -10.649238 23.662233 10.455945 -41.003045 -70.066681 51.594416 -77.041966 -17.812944 7.125000 0.000000 0.000000 
22.499322 26.909246 -1.122395 44.488177 -65.475428 135.120943 112.092097 48.739824 -98.888218 43.586481 28.328427 -132.140285 125.390547 -60.435978 -150.665883 0.789400 -5.671600 -15.834600 -36.796681 13.532099 -6.757328 87.108987 46.499823 135.500399 170.961128 -19.272815 65.134125 -0.004300 0.423400 -1.163400 -96.566770 11.413770 127.469660 -15.014162 49.614624 87.047763 -162.859362 66.887824 149.472512 -1.958800 -1.662100 -0.417000 134.419439 28.864482 -112.540898 -127.102164 -23.257457 159.114040 -17.590319 15.610205 -34.342010 -7.125000 0.000000 0.000000 164.989511 -62.117421 -63.117272 56.985521 9.139412 6.111309 15.618202 -5.992194 -3.000538 7.125000 0.000000 0.000000 
